<?xml version="1.0" encoding="utf-8"?>
<!-- Generator: Adobe Illustrator 19.0.0, SVG Export Plug-In . SVG Version: 6.00 Build 0)  -->
<svg version="1.1" id="Layer_1" xmlns="http://www.w3.org/2000/svg" xmlns:xlink="http://www.w3.org/1999/xlink" x="0px" y="0px"
	 viewBox="0 0 243.5 75.7" style="enable-background:new 0 0 243.5 75.7;" xml:space="preserve">
<style type="text/css">
	.st0{fill:#17505C;}
	.st1{fill:#F0C230;}
	.st2{fill:url(#XMLID_82_);}
</style>
<g id="XMLID_81_">
	<g id="XMLID_85_">
		<path id="XMLID_110_" class="st0" d="M24.2,46.5c-4.3-2.8-8.3-4-11.1-4c-3.1,0-5,1.5-5,3.5c0,1.7,2.6,3.8,9.3,7.7
			c6.3,4.2,8.6,6.8,8.6,10.8c0,6.7-5.4,11.3-12.6,11.3C8.6,75.7,5,74.8,0,72.2V64c5,3.4,9.5,5,12.6,5c3.1-0.2,5.6-1.6,5.6-4.4
			c0-5.3-17.9-8.1-17.9-18.4c0-6.5,5-10.4,12.6-10.4c3.6,0,7.3,1,11.3,3.2V46.5z"/>
		<path id="XMLID_107_" class="st0" d="M62.9,46.6c-4.4-2.9-7.3-3.8-10.6-3.8c-6.9,0-11.7,5.2-11.7,13c0,7.9,5.1,12.7,13,12.7
			c3.2,0,6.3-0.9,10.2-2.6v7.5c-2.6,1.2-7.4,2.2-11.4,2.2c-11.4,0-19.5-7.9-19.5-19.2c0-12.6,7.3-20.7,19-20.7c4.4,0,7.4,1,11.1,2.6
			V46.6z"/>
		<path id="XMLID_105_" class="st0" d="M80.2,36.6v8.8h0.2c3.8-6.7,7.5-9.6,11.1-9.6c3.1,0,6,1.5,9.1,4.4l-4,6.6
			c-2.3-2.2-5.3-3.8-7.1-3.8c-5.2,0-9.3,5.2-9.3,11.8v20.1h-7.6V36.6H80.2z"/>
		<path id="XMLID_103_" class="st0" d="M113.7,74.9h-7.6V36.6h7.6V74.9z"/>
		<path id="XMLID_98_" class="st0" d="M131.9,39.3c3.3-2.4,6.7-3.5,10.6-3.5c9.6,0,16.6,8.1,16.6,19.1c0,13-7.7,20.7-20.5,20.7
			c-5,0-10.5-1.1-14.3-2.9V0h7.6V39.3z M131.9,67.3c2.2,0.7,5.5,1.2,7.7,1.2c6.8,0,11.7-5.2,11.7-12.5c0-8.1-4.3-13.4-10.7-13.4
			c-3.2,0-5.5,1-8.7,3.9V67.3z"/>
		<path id="XMLID_94_" class="st0" d="M175.1,74.9h-7.6V36.6h7.6V74.9z"/>
		<path id="XMLID_91_" class="st0" d="M194.9,36.6H207v6.8h-12.1v19.6c0,4.5,3.2,5.8,5.5,5.8c2.7,0,5.5-0.9,8.6-2.8v7.1
			c-2.6,1.5-6.7,2.6-9.2,2.6c-8.3,0-12.5-5.1-12.5-12V43.4h-6.7v-0.9l14.3-13.9V36.6z"/>
		<path id="XMLID_87_" class="st0" d="M223.1,68.1h20.5v6.8H210l20.3-31.5h-19.5v-6.8h32.7L223.1,68.1z"/>
	</g>
</g>
<path id="XMLID_4_" class="st1" d="M186.6,10.8c0-1-0.8-1.7-1.7-1.7l-1.3,0l0,16c0,1-0.8,1.7-1.7,1.7l-27.9,0l0,1.4
	c0,1,0.8,1.7,1.7,1.7l29.1,0c1,0,1.7-0.8,1.7-1.7L186.6,10.8z"/>
<path id="XMLID_14_" class="st0" d="M183.6,7.6c0-1-0.8-1.7-1.7-1.7l-29.1,0c-1,0-1.7,0.8-1.7,1.7l0,17.4c0,1,0.8,1.7,1.7,1.7
	l29.1,0c1,0,1.7-0.8,1.7-1.7L183.6,7.6z M163.1,21.7c-3,0-5.1-2.1-5.1-5.1c0-3.3,1.9-5.4,5-5.4c1.2,0,2,0.3,2.9,0.7l0,2.1
	c-1.1-0.8-1.9-1-2.8-1c-1.8,0-3.1,1.4-3.1,3.4c0,2.1,1.4,3.3,3.4,3.3c0.9,0,1.7-0.2,2.7-0.7l0,2C165.4,21.4,164.2,21.7,163.1,21.7z
	 M172.9,21.7c-3,0-5.1-2.1-5.1-5.1c0-3.3,1.9-5.4,5-5.4c1.2,0,2,0.3,2.9,0.7l0,2.1c-1.1-0.8-1.9-1-2.8-1c-1.8,0-3.1,1.4-3.1,3.4
	c0,2.1,1.4,3.3,3.4,3.3c0.9,0,1.7-0.2,2.7-0.7l0,2C175.3,21.4,174,21.7,172.9,21.7z"/>
<rect id="XMLID_75_" x="232.9" y="68.1" class="st1" width="10.7" height="6.8"/>
<g id="XMLID_5_">
	<g id="XMLID_44_">
		<radialGradient id="XMLID_82_" cx="389.1588" cy="-24.9383" r="110.7725" gradientUnits="userSpaceOnUse">
			<stop  offset="0" style="stop-color:#F9FDFF"/>
			<stop  offset="0.1232" style="stop-color:#EBE6E5"/>
			<stop  offset="0.9015" style="stop-color:#B2A0A0"/>
		</radialGradient>
		<path id="XMLID_48_" class="st2" d="M425.1-179.2c-19,8.4-38.4,17.6-53.6,32.1c-15.7,14.9-23.8,35-21,56.7
			c3.2,24.8,17.5,45.8,31.9,65.5c15.2,20.7,29.4,41.3,35.2,66.8c6.3,28,3.1,57.9-9.2,83.9c-1.4,2.9,2.9,5.4,4.3,2.5
			c20.8-43.8,15.7-94.3-10.8-134.4c-13.8-21-31.3-40-40.7-63.6c-9-22.6-8.7-47.4,7.3-66.7c15.1-18.3,37.9-28.9,59.2-38.3
			C430.5-176.1,428-180.5,425.1-179.2L425.1-179.2z"/>
	</g>
</g>
</svg>
