<?xml version="1.0" encoding="UTF-8" standalone="no"?>
<svg
   xmlns:dc="http://purl.org/dc/elements/1.1/"
   xmlns:cc="http://creativecommons.org/ns#"
   xmlns:rdf="http://www.w3.org/1999/02/22-rdf-syntax-ns#"
   xmlns:svg="http://www.w3.org/2000/svg"
   xmlns="http://www.w3.org/2000/svg"
   viewBox="0 0 324.82666 100.92"
   height="100.92"
   width="324.82666"
   xml:space="preserve"
   id="svg2"
   version="1.1"><metadata
     id="metadata8"><rdf:RDF><cc:Work
         rdf:about=""><dc:format>image/svg+xml</dc:format><dc:type
           rdf:resource="http://purl.org/dc/dcmitype/StillImage" /><dc:title></dc:title></cc:Work></rdf:RDF></metadata><defs
     id="defs6" /><g
     transform="matrix(1.3333333,0,0,-1.3333333,0,100.92)"
     id="g10"><g
       transform="scale(0.1)"
       id="g12"><path
         id="path14"
         style="fill:#edbe1c;fill-opacity:1;fill-rule:nonzero;stroke:none"
         d="m 1894.17,443.418 -291.27,3.18 c -9.51,0.105 -17.2,7.972 -17.1,17.48 l 1.9,174.149 c 0.11,9.507 7.97,17.203 17.48,17.101 l 291.27,-3.183 c 9.51,-0.102 17.21,-7.969 17.1,-17.477 l -1.9,-174.148 c -0.1,-9.508 -7.97,-17.207 -17.48,-17.102" /><g
         transform="scale(10)"
         id="g16"><text
           id="text20"
           style="font-variant:normal;font-weight:normal;font-size:22.47969246px;font-family:GillSansStd;-inkscape-font-specification:GillSansStd;writing-mode:lr-tb;fill:#ffffff;fill-opacity:1;fill-rule:nonzero;stroke:none"
           transform="matrix(0.99994,-0.01092,-0.01092,-0.99994,164.667,49.9633)"><tspan
             id="tspan18"
             y="0"
             x="0 9.8452864">cc</tspan></text>
</g><path
         id="path22"
         style="fill:#224a5a;fill-opacity:1;fill-rule:nonzero;stroke:none"
         d="m 241.602,291.969 c -42.68,28.164 -82.805,40.125 -110.981,40.125 -30.7304,0 -50.371,-14.512 -50.371,-35.008 0,-17.078 25.613,-37.563 93.059,-76.832 63.175,-41.828 86.226,-68.301 86.226,-107.57 C 259.535,45.2422 205.742,0 133.184,0 86.2266,0 49.5234,9.38281 0,35 v 81.953 C 49.5234,82.8008 94.7617,66.5859 125.504,66.5859 c 30.73,1.7032 56.344,16.2149 56.344,43.5351 0,52.934 -179.2855,81.109 -179.2855,184.399 0,64.894 49.5234,104.16 126.3515,104.16 35.859,0 72.563,-10.242 112.688,-31.586 v -75.125" /><path
         id="path24"
         style="fill:#224a5a;fill-opacity:1;fill-rule:nonzero;stroke:none"
         d="m 629.129,291.109 c -43.535,29.024 -72.559,37.563 -105.852,37.563 -69.148,0 -116.968,-52.074 -116.968,-129.762 0,-79.39 51.226,-127.1952 129.773,-127.1952 32.434,0 63.176,8.5235 101.586,25.5977 V 22.1914 C 612.055,10.2422 563.402,0 523.277,0 408.871,0 328.621,79.3906 328.621,192.078 c 0,126.352 73.418,206.602 189.527,206.602 44.395,0 74.278,-10.242 110.981,-26.461 v -81.11" /><path
         id="path26"
         style="fill:#224a5a;fill-opacity:1;fill-rule:nonzero;stroke:none"
         d="m 802.375,391 v -87.941 h 1.703 c 38.422,67.445 75.125,95.621 110.985,95.621 30.738,0 59.761,-14.512 91.347,-44.395 l -40.121,-65.738 c -23.051,22.203 -52.934,37.562 -70.855,37.562 -52.086,0 -93.059,-52.074 -93.059,-117.8 V 7.67969 h -75.98 V 391 h 75.98" /><path
         id="path28"
         style="fill:#224a5a;fill-opacity:1;fill-rule:nonzero;stroke:none"
         d="M 1136.97,7.67969 H 1061 V 391 h 75.97 V 7.67969" /><path
         id="path30"
         style="fill:#224a5a;fill-opacity:1;fill-rule:nonzero;stroke:none"
         d="m 1318.79,83.6602 c 22.19,-6.8321 54.64,-11.9454 76.83,-11.9454 68.31,0 116.97,52.0702 116.97,124.6332 0,81.109 -42.69,134.031 -106.73,134.031 -31.58,0 -54.63,-10.246 -87.07,-39.27 z m 0,280.0238 c 33.3,23.894 67.45,34.996 105.87,34.996 95.61,0 165.62,-81.098 165.62,-191.231 C 1590.28,77.6875 1513.44,0 1385.38,0 1335.01,0 1280.37,11.0898 1242.81,29.0234 V 756.902 h 75.98 V 363.684" /><path
         id="path32"
         style="fill:#224a5a;fill-opacity:1;fill-rule:nonzero;stroke:none"
         d="m 1750.7,7.67969 h -75.97 V 391 h 75.97 V 7.67969" /><path
         id="path34"
         style="fill:#224a5a;fill-opacity:1;fill-rule:nonzero;stroke:none"
         d="m 1948.73,391 h 121.22 V 322.699 H 1948.73 V 126.352 c 0,-45.2543 32.45,-58.0629 54.64,-58.0629 27.32,0 55.49,9.3984 86.22,28.1797 V 25.6016 C 2063.13,11.0898 2022.15,0 1997.39,0 1914.58,0 1872.75,51.2148 1872.75,120.363 v 202.336 h -66.59 v 8.535 l 142.57,139.161 V 391" /><path
         id="path36"
         style="fill:#224a5a;fill-opacity:1;fill-rule:nonzero;stroke:none"
         d="m 2231.26,75.9688 h 204.89 V 7.67969 H 2099.8 L 2302.98,322.699 H 2108.32 V 391 H 2435.3 L 2231.26,75.9688" /><path
         id="path38"
         style="fill:#224a5a;fill-opacity:1;fill-rule:nonzero;stroke:none"
         d="m 1864.58,475.359 -291.27,3.18 c -9.51,0.106 -17.21,7.969 -17.11,17.477 l 1.91,174.152 c 0.1,9.508 7.97,17.203 17.48,17.098 l 291.27,-3.18 c 9.5,-0.106 17.2,-7.969 17.1,-17.477 l -1.91,-174.152 c -0.1,-9.508 -7.97,-17.203 -17.47,-17.098" /><g
         transform="scale(10)"
         id="g40"><text
           id="text44"
           style="font-variant:normal;font-weight:normal;font-size:22.47969246px;font-family:GillSansStd;-inkscape-font-specification:GillSansStd;writing-mode:lr-tb;fill:#ffffff;fill-opacity:1;fill-rule:nonzero;stroke:none"
           transform="matrix(0.99994,-0.01092,-0.01092,-0.99994,161.707,53.1566)"><tspan
             id="tspan42"
             y="0"
             x="0 9.8452864">cc</tspan></text>
</g><path
         id="path46"
         style="fill:#edbe1c;fill-opacity:1;fill-rule:nonzero;stroke:none"
         d="M 2436.15,7.67969 H 2329.48 V 75.9688 h 106.67 V 7.67969" /></g></g></svg>